/* XPM */
static char *_435fc8f80c14926fd0a8763c4af40ccmJ9kXsA6U8lzY4rh[] = {
/* columns rows colors chars-per-pixel */
"64 64 18 1 ",
"  c None",
". c #0C3F0F",
"X c #190F20",
"o c #6D1823",
"O c #0F5314",
"+ c #116116",
"@ c #5B5168",
"# c #C2360F",
"$ c #D64F5D",
"% c #67940F",
"& c #63AD45",
"* c #7EC262",
"= c #85BF13",
"- c #D48A19",
"; c #CEB7B9",
": c #C9B8BD",
"> c #EFECEC",
", c #F8F8F8",
/* pixels */
"                                                                ",
"                                                                ",
"                                                                ",
"                         $$oooooo                               ",
"                        $$oooooooo                              ",
"                       $$ooooXXXXoo                             ",
"                      $$$ooooooXXXoo                            ",
"                     $$$ooooooooXXXoo                           ",
"                     $X$ooooXooooXooo                           ",
"        #            $X$$oooXXooXX  o                           ",
"         -           $XX$$oXXXoXXX  o                           ",
"                     $XXXXXXXXooXXX o                           ",
"                     $XXXXXXXXoooXX o                           ",
"           #        $$XXXXXXXXoooXXX                            ",
"          -         $XX>>X>>XXXoooXX                            ",
"                    $XXXXXXXXXXXooXXX                           ",
"                    $XXXXXXXXXXXooXXX                           ",
"          #         $XXXXXXXXXXXooXXX                           ",
"         #         $$$XXXXXXXXXoooXXXX                          ",
"          ##       $$oXXXXXXXXoooXXXXX                          ",
"         #--#     X$$ooXXXXXXooooXXooXX                         ",
"         ,-##    $XX$$ooXXXXooooXXXoooo                         ",
"        #-,##   $$$XX$ooXXXooooXXXoooooo                        ",
"        ##,##  X$oooXXooXoXooooXXoooooooo                       ",
"         ###  XXX$oooXXoXooXooXXooXoooooo                       ",
"             XXXXX$ooooXXooXoXXoooXXoooooo                      ",
"         ;>;X$$ooXooooooXooXooooooXXoooooo                      ",
"         ;>>;$$$ooXoooooXooXoooooooXXXXXoo                      ",
"         ;>>>@@$ooXooooooooXooooooXXXXooXoo                     ",
"          ::@XXoooXooooooooooooooXXooXXoooo                     ",
"            oXXoooXoXooooooooooXXXooooXoooo                     ",
"            oXXoooXoXXooooooooXoooooooXoooo                     ",
"            oXXooooooXoXoooooXooooooooooooX                     ",
"            oXXooXooXXoXoooo::::@XoooooooXX                     ",
"            oXXooXooXXoXooo>>>>:@XooooooXXX                     ",
"            oXoooXooXoXXoo.:>>>.&XoooooXXXX                     ",
"            oXooXXooXoXooo.o;:;X&XooooXXXX                      ",
"            oXooXXooooXoXX.ooXXX&XooooXXXX                      ",
"             XooXXXooooXooo.oXX&XXoooXXXXX                      ",
"             oXoXXXooXoXoXoo..&XXXooXXXXX                       ",
"             oXoXXXXXXoXoXooo.XXXooXXXXXX                       ",
"             oXooXXXXooooXooO+*XXooXXXXXX                       ",
"             o  oXXooooooXoO+++*XoXXXXXX                        ",
"             o  o XXooooXooO=%+*XXXXXXXX                        ",
"             o  o XXXoooXooO=%+*XXXXXXXX                        ",
"             o  o  XXooXXooO=%+*XXXXXXXX                        ",
"             o  o  XXooXXXoO+++*XXX XXXX                        ",
"             o      XooXoXoXO+*XXXX  XXX                        ",
"             o      XooXXXoXoXXXXXX   XX                        ",
"                    XXoXoXoXoXXXXXX   XX                        ",
"                    XXoXoXoXoXXXX X   XX                        ",
"                     XoooXoXoXX X X   XX                        ",
"                      XooXo oXX       X                         ",
"                      XXoXo oXX       X                         ",
"                       XoXooo X      XX                         ",
"                       XXXXoo X      X                          ",
"                        XX  oo                                  ",
"                             o                                  ",
"                            o                                   ",
"                                                                ",
"                                                                ",
"                                                                ",
"                                                                ",
"                                                                "
};
