/* XPM */
static char *_42c1510a2214b3efe30856df0adae2cON3g2TyAMQuPbWlz[] = {
/* columns rows colors chars-per-pixel */
"64 64 165 2 ",
"   c None",
".  c #15120F",
"X  c #151210",
"o  c #191614",
"O  c #171915",
"+  c #1B1916",
"@  c #1D1D1A",
"#  c #221E1B",
"$  c #1E211D",
"%  c #23211E",
"&  c #28211E",
"*  c #1D1F20",
"=  c #1E2121",
"-  c #1E262D",
";  c #1F282F",
":  c #1E2930",
">  c #242422",
",  c #2B2623",
"<  c #262924",
"1  c #2D2925",
"2  c #22262A",
"3  c #24292D",
"4  c #2B2C2A",
"5  c #312A26",
"6  c #332D2A",
"7  c #2D322B",
"8  c #33322D",
"9  c #39332F",
"0  c #232D35",
"q  c #242F38",
"w  c #273032",
"e  c #25323C",
"r  c #2E353B",
"t  c #333432",
"y  c #393632",
"u  c #353933",
"i  c #3A3A35",
"p  c #3C3C3A",
"a  c #413C3A",
"s  c #384037",
"d  c #3F413C",
"f  c #41403D",
"g  c #263542",
"h  c #283642",
"j  c #273846",
"k  c #2A3945",
"l  c #273B4D",
"z  c #293C4C",
"x  c #323C42",
"c  c #293F52",
"v  c #3A454C",
"b  c #2A4155",
"n  c #2B445A",
"m  c #2D485F",
"M  c #2D4760",
"N  c #2E4B65",
"B  c #2F4E69",
"V  c #304E67",
"C  c #304F6A",
"Z  c #2F516D",
"A  c #30516D",
"S  c #325573",
"D  c #335877",
"F  c #355B7C",
"G  c #385E7E",
"H  c #38607F",
"J  c #434442",
"K  c #464946",
"L  c #464748",
"P  c #43494A",
"I  c #4A4B4A",
"U  c #4D5051",
"Y  c #535453",
"T  c #355F81",
"R  c #366184",
"E  c #396385",
"W  c #376489",
"Q  c #39668A",
"!  c #3B698E",
"~  c #3B6D94",
"^  c #3B6F98",
"/  c #3E7097",
"(  c #3F739B",
")  c #3D7199",
"_  c #3D739D",
"`  c #3F739C",
"'  c #3D749E",
"]  c #3F759F",
"[  c #3D729B",
"{  c #3D76A1",
"}  c #3F76A1",
"|  c #3F77A2",
" . c #3E76A2",
".. c #3F79A6",
"X. c #3E7AA8",
"o. c #406E92",
"O. c #407096",
"+. c #41749A",
"@. c #42749A",
"#. c #40749D",
"$. c #42769D",
"%. c #40769F",
"&. c #43769E",
"*. c #41749C",
"=. c #4077A1",
"-. c #4077A2",
";. c #4177A1",
":. c #4378A1",
">. c #4179A3",
",. c #4379A3",
"<. c #437AA3",
"1. c #4479A2",
"2. c #4079A4",
"3. c #407AA5",
"4. c #437AA4",
"5. c #407AA6",
"6. c #427BA7",
"7. c #447BA4",
"8. c #467CA5",
"9. c #447CA7",
"0. c #467DA6",
"q. c #437AA4",
"w. c #417CA9",
"e. c #427DA9",
"r. c #417EAB",
"t. c #437EAB",
"y. c #457EA9",
"u. c #457FAB",
"i. c #467FAA",
"p. c #437FAC",
"a. c #437EA9",
"s. c #487EA8",
"d. c #4680AB",
"f. c #4380AD",
"g. c #4380AE",
"h. c #4480AD",
"j. c #4680AC",
"k. c #4481AE",
"l. c #4582AF",
"z. c #4783AE",
"x. c #4681AD",
"c. c #4880A9",
"v. c #4883AF",
"b. c #4884AF",
"n. c #4981AC",
"m. c #4683B0",
"M. c #4685B3",
"N. c #4684B1",
"B. c #4984B0",
"V. c #4885B2",
"C. c #4A86B3",
"Z. c #4A87B4",
"A. c #4986B3",
"S. c #4C89B5",
"D. c #4D8BB7",
"F. c #4B89B6",
"G. c #4D8DBA",
"H. c #508FBB",
"J. c #5292BE",
"K. c #5595C2",
"L. c #5997C2",
"P. c #5799C7",
"I. c #5999C4",
"U. c #5A9CCA",
"Y. c #5EA1CE",
/* pixels */
"                                                          D A N Z S S A                                                         ",
"                                                  N N D R ~ W D R ! W R T B N                                                   ",
"                                                R D F ~ ) w.` R { z.w.' ~ T D T                                                 ",
"                                        N N F ~ ' -.-.u.m.M.2.Q 2.V.V.z.w.2.2.{ +.E A V                                         ",
"                                    N N A T 5.p.V.S.S.Z.0.z.2.Q o.&.2.9.N.V.S.V.p.9.Q S V V                                     ",
"                                C S D T T ! u.p.1.%.{ ` Q Q W F S G E ! ) ' %.:.s.p.@.o.o.Q T C                                 ",
"                          M S F T ! #.,.;.o.^ ! ! ! W R F D F D V S F F E E Q ~ ^ +.o.:.s.9.~ T T D N                           ",
"                        N B T ~ -.t.u.s.;.Q T F R F F D D D S S V A S S F F T F F G W +.p.n.u.w.) W S N                         ",
"                      N A R ' w.u.u.s.O.! T D B S S S C C C M M c b M B A S S A A S F T O.1.s.u.z.{ Q S B                       ",
"                    N S W { f.f.5.#.! T T D C B N M M l c g 0 2 2 0 g l c c M V N C S D T T ^ ,.u.V.2.~ F B                     ",
"                  N F ! 2.f.u.%.! T T T M c g g g e 0 2 2 > * & % % > - 2 3 0 g q g l M D T T T ~ u.N.u.^ T A                   ",
"                N S ! w.m.0.) Q T S C c g 0 2 , 3 , , & , , 5 5 6 1 1 , , % , , 3 3 2 q c M D T E ~ 1.z.z.) F B                 ",
"              M N R %.p.2.~ E F S M k q , , 5 5 6 5 , 5 6 6 6 6 6 5 6 6 6 5 5 5 6 6 5 > 3 g c A F T ! -.w.:.E A N               ",
"            A A S G o.) ~ T F S c q , , 5 5 6 9 9 5 & & # # & # # # # # 5 # 5 6 6 9 5 5 , , 0 l N F H Q / ~ H F S S             ",
"          B F ~ ) o.R R E G V l 0 , 5 5 , , , & # + + + X X X X X o X o o o o # & , 5 & 5 5 5 3 h n D E R F W ^ ~ R D           ",
"          S W -.z.1.E D D V j 3 , 5 5 # # # o # o X X X X X X . X X X . . . . o o # o # # 5 9 , < e n S D F / m.p.~ T           ",
"          T ~ e.n.-.E S N j 3 1 5 5 & + X . . . X X X X X X X X . X X . X X X X . . . X o # 5 6 1 , e b C T o.B.B...Q           ",
"        N E +.u.u.~ R A c 2 , 6 6 # + X X X . . X X . X X X . X X . . X . X X X X X X X X X & 1 6 1 > g N F Q 2.m.p.^ S         ",
"        N F ~ 9.8.Q F m q = 1 5 # o o X . X . . X X . X X X X X . . X X X X X X X . X X X X X % 5 5 = 2 c S T o.B.B.^ S V       ",
"    n.+.G D E %.8.R S b 0 # 1 1 , # o X . . . . . X . . . X . X . X X X X . X X X X X X . X X $ , 1 > - l S G o.B.u.W D Q %.    ",
"  ! O.&.) F E &.0.R S n e , 6 , > > + o X X X X . . X X . X X X X X . X X X X X X X X X X O + > 4 6 1 3 l S G +.n.&.R ! %.+.~   ",
"  A G o.%.F H O.%.F S n 0 1 8 & $ > @ @ o . . X X . . . X X X X . . . . X X X X X X X X X $ 4 4 6 9 5 3 l A G ~ &.! F O.+.E S   ",
"  V S R E F F E ! F A b e , 5 % O @ @ @ o X X X X X X . X X . X X X X X X X X X X X . X + < u u t y 5 3 j V S T E H D E E G S   ",
"    A S G E E Q Q R T N 0 , 8 & X o @ * o X X X . X X X X X X X . X X X X X X X X X X o # 1 x u 8 y 5 3 l V D F T E Q Q Q T F   ",
"      A F T F D D F D n q > 1 % + $ = + o X X X X X X X X X X X X X X . X X X X . . . X @ 3 f u 8 t , 2 l B B S S F T T F T     ",
"      C C S S S S B B b 0 % , # = w 4 + X X X X X X X X X X X X X . . X X X X X . . X X # p J u 1 5 > - l N B B C A S S S       ",
"        M V D S S N B n 0 @ & # > v p > X X X X X X X X X X X X X X X X X X X X . . . @ 8 I L t 1 8 & 2 l N N S S S S V         ",
"        N D T T D B S n 0 & & & t I p 4 # o X X X X X X X X X X X X X X X X X . . . o > t I L t 1 6 # - l B B D T E E S         ",
"        V T W Q E D S n 0 , , , p Y p 4 > @ X X X X X X X X X X X X X X X X X . . . o * 4 p J 8 1 9 , 2 l S B T Q +.+.D         ",
"        V W ~ ` %.T F m q , 5 5 a Y p 4 % @ X X X X X X X X X X . X X X X X X X . . o * 4 t J t 8 y 5 2 c D S T ~ 2.u.F         ",
"        C Q _ ..u.E F n 0 , 6 6 a U p 1 % + X X X X X X X X X X X . X X X X X X . . o > 8 u L t 8 y 6 3 c S S W ~ w.s.F         ",
"        B Q { w.2.R S b q , 6 5 i L t 3 * X X X X X X X X X X X X X X . X X X X . X @ > t L L u 6 y 5 2 l B S ~ { w.-.F         ",
"        B W ` w.{ T S c q , 6 5 r J 6 3 > + X X X X X X . . X X X X X X X X X X X o # < t L Y v r 8 1 2 l A S ~ { ..^ S         ",
"        N T ~ { ^ T S M q & 5 5 t k 6 , * + X X X X X X X X X X X X X X X X X X X X @ > 4 p L P p 6 , 2 l B S ~ { { ^ S         ",
"        N T ^ ` ^ D A c q , 5 6 t x 5 , & + X X X X X X X X X X X X X X X X X X X X o @ > 4 d K a 6 4 3 c B S Q ^ { ^ S         ",
"        B T ^ ..^ D S c 0 , 5 6 y a & % # X X X X X X X X X X X X X X X X X X X X X X X O = 8 d f 9 5 3 l C A ~ {  .^ S         ",
"        B T { m.#.D D M q > , 3 t x # X X X X X X X X X X X X X X . X . X X X X X X X X o + < u i 8 1 2 c S S Q { X.~ S         ",
"        N T -.m.;.S F M q 5 6 , 4 6 # X X X X X X X X X X X X . X X X X X X X X X X X > 8 7 7 7 u y 5 2 b S S W _ X.^ Z         ",
"        N T -.Z.{ D D M q 5 6 , 4 y 5 # X X X X X X X X X X X X X X X X X X X X . X o > t J d p y i 6 0 b S S Q { X.^ S         ",
"        B T ` 2.~ S S n q , 5 5 y L t & X X X X X X X X X X . X X X X X X X X X . X + = t I K p t y 5 < c S B T ^ ..^ D         ",
"        N R ~ ~ G A A n q 1 6 5 a U k * X X X X . X X X X . . X X X . X X X X X . X X * w p 8 7 8 y 1 2 l B Z F W ^ ^ D         ",
"        V R ~ Q F V A n q , 6 1 4 J i # X X X X X X X X X X X X . . . . X X X X X X X X % % > < u i 6 < z Z A D T ~ Q S         ",
"        N D T D A V A b 0 1 5 % 4 a y = o X X X X X X X X X X X X X X . X X X X X X X o $ $ < 4 7 u 1 < z Z N A S G F V m       ",
"        S F T F D A F N h 1 5 # , r 6 > o X X X X X X X X . X X . . . X X . X X X X X * 3 t 7 7 8 8 , 0 n F D F F G G D A       ",
"        R ~ +.+.~ ! +.R b > 1 % $ 4 = = o X X X X X X . . X X X X . X X X X X X X X X o 3 p 7 7 7 6 & e S +.~ / / ~ / ) W       ",
"        ~ 8.B.V.b.0.u.~ b & & # $ < $ + + X X X X X X X X . . X X X . X . X X X X X X o # * $ 4 8 6 < e G s.s.n.n.n.n.d.~       ",
"      o.F R Q Q Q E E S k > & @ $ > + > + X X X . X . . . . X X X X X . X X X X X X X o = > > 4 7 8 & 3 m F T E E E E E D       ",
"    b.n.O.+.) o.) +.+.H b , 1 % $ $ @ > + X X X X . X X . X X X X X X X X X . X X X X X @ > > > 8 9 > e A +.+.+.+.@.+.O.+.u.    ",
"  w.u.n.u.d.d.z.z.m.N.~ n , 8 , $ $ $ $ O . X X X X X . X . X X X X X X X X X X X X X X O $ $ < 7 p 1 r H d.f.b.b.V.V.n.n.d.h.  ",
"Z.2.! Q +.' w.z.w.2.u.Q b , 9 < $ $ $ @ X . X X X X X X X X X . X X X X X . X X X X X . X $ < < 7 s 1 w A ) | w.e.d.e.| / ! ( N.",
"K.w.W F ! ~ ) ) ~ Q Q S j & 6 & $ = $ @ O . . X X X X X X X X X X X X . X X X X . X X X O < s 7 8 y 1 e m R W ~ ! ! ! ! T R %.J.",
"P.d.R A R T T R T F S m e & 5 < % < $ $ + . . . X X X X X X . X . . X X X X X X X . X X O > u s i 8 > 3 b S S F F R F R D F +.K.",
"U.D./ W W Q W W W R R A k & & & > < $ $ o . X X X . X . X X . X X X X X X X X X X . . X O $ < 7 u 1 % ; m R R R W Q E W R ! d.P.",
"J.H.N.2.| e.e.| ] ] <.Q b % & % > = $ O X X X X . X X X X X X X X X X X X . . X X . X X X + $ < 6 1 % e D <.<.&.:.<.:.&.| d.D.J.",
"+.d.A.A.A.F.A.F.A.A.N.! b % % @ + $ X X X X X X X X X X X X X X X . X X X X . . X . X . X X O @ & & % e H n.b.A.F.A.V.b.z.N.z.' ",
"A E ' w.w.X.r...' ( ) F z @ + O + O X X X X . X X X . . . . . . . . . . . . . . . . . . X X X o $ $ @ ; V ~ / ( e.X.e...' ) E D ",
"N F ~ ) _ _ ` ~ ! W R S l - - - : : - - : - - - - - - - - - - - - - - - - - - - - - - - - - - - : : : q M T R Q ~ ) [ _ [ ~ R B ",
"N D R W R W R R F D S Z n l n M M M n n c c c n n n M n n b n n n n n n b n n n n b c b m n n n n n c c B D D F R H R R R R F B ",
"N S D D Z S S A S S S Z Z S R ! ~ W E E T S S D T W ~ W W R R E W R W R R R R R R D A S T R R T T T D B B B S S S S Z Z S D D B ",
"N B D D F R R R R R R R W W [ { ....{ ..~ T F W ) ..p.2.2.9...{ ' | 2.e.0.e.w.' ~ R D T ! ) ' ` ^ ! Q T D D F F R F F R T F D N ",
"M S E ^ 1.d.d.d.z.w.:.0.l.f.N.F.Z.V.Z.p._ W W _ p.G.K.K.K.P.K.G.Z.G.K.K.K.K.K.G.z.^ E Q _ p.Z.V.m.p.z.9.&.O.^ ~ ~ ~ ~ ~ ~ ! F Z ",
"N D +.C.K.I.P.P.P.P.H.J.U.P.P.K.P.K.K.G.2.W ~ X.F.K.P.P.P.U.U.P.P.I.U.Y.Y.Y.Y.P.K.n.~ ) p.G.J.K.K.P.I.L.J.J.J.S.Z.F.S.b.X.| ! S ",
"A E %.C.J.L.J.J.K.I.J.J.K.K.K.J.J.L.K.H.2.~ ~ { f.M.F.F.F.D.K.K.K.K.J.J.K.L.L.I.J.S.%.{ p.Z.S.S.J.L.I.I.L.I.I.J.G.J.J.H.b.b.%.F ",
"F Q ~ %.n.b.n.c.n.n.n.c.d.n.n.d.n.n.n.8.&.^ ~ ^ ) _ [ _ ` 2.n.n.n.s.n.n.n.n.n.n.n.9.^ ~ _ ) ) %.1.n.B.n.n.n.n.n.n.n.n.n.n.n.@.R "
};
